<mxfile host="app.diagrams.net" modified="2023-11-27T15:29:09.129Z" agent="Mozilla/5.0 (Windows NT 10.0; Win64; x64) AppleWebKit/537.36 (KHTML, like Gecko) Chrome/119.0.0.0 Safari/537.36" etag="XgXyq6zs9WPKtfv1guBI" version="22.1.4" type="device">
  <diagram name="Page-1" id="4SaV8Scy8z52fkXbTntU">
    <mxGraphModel dx="3127" dy="2123" grid="1" gridSize="10" guides="1" tooltips="1" connect="1" arrows="1" fold="1" page="1" pageScale="1" pageWidth="827" pageHeight="1169" math="0" shadow="0">
      <root>
        <mxCell id="0" />
        <mxCell id="1" parent="0" />
        <mxCell id="HDKCLgBYvoo_a0cAm_rK-1" value="" style="whiteSpace=wrap;html=1;aspect=fixed;fontStyle=1" parent="1" vertex="1">
          <mxGeometry x="150" y="-60" width="950" height="950" as="geometry" />
        </mxCell>
        <mxCell id="HDKCLgBYvoo_a0cAm_rK-2" value="Créer Compte" style="ellipse;whiteSpace=wrap;html=1;" parent="1" vertex="1">
          <mxGeometry x="510" y="-30" width="180" height="70" as="geometry" />
        </mxCell>
        <mxCell id="HDKCLgBYvoo_a0cAm_rK-3" value="Se Connecter" style="ellipse;whiteSpace=wrap;html=1;" parent="1" vertex="1">
          <mxGeometry x="330" y="240" width="200" height="70" as="geometry" />
        </mxCell>
        <mxCell id="HDKCLgBYvoo_a0cAm_rK-5" value="Associations" style="shape=umlActor;verticalLabelPosition=bottom;verticalAlign=top;html=1;" parent="1" vertex="1">
          <mxGeometry x="-40" y="180" width="50" height="290" as="geometry" />
        </mxCell>
        <mxCell id="HDKCLgBYvoo_a0cAm_rK-6" value="Se Déconnecter" style="ellipse;whiteSpace=wrap;html=1;" parent="1" vertex="1">
          <mxGeometry x="330" y="790" width="190" height="70" as="geometry" />
        </mxCell>
        <mxCell id="asQEeE-Eh1QKs91jRv2q-5" value="Publier_événement" style="ellipse;whiteSpace=wrap;html=1;" vertex="1" parent="1">
          <mxGeometry x="690" y="80" width="160" height="80" as="geometry" />
        </mxCell>
        <mxCell id="asQEeE-Eh1QKs91jRv2q-6" value="Décliner_réservation" style="ellipse;whiteSpace=wrap;html=1;" vertex="1" parent="1">
          <mxGeometry x="440" y="630" width="200" height="70" as="geometry" />
        </mxCell>
        <mxCell id="asQEeE-Eh1QKs91jRv2q-7" value="Accepter_rérservation" style="ellipse;whiteSpace=wrap;html=1;" vertex="1" parent="1">
          <mxGeometry x="234" y="540" width="180" height="70" as="geometry" />
        </mxCell>
        <mxCell id="asQEeE-Eh1QKs91jRv2q-8" value="Voir_ListeUtilisateursInscrits" style="ellipse;whiteSpace=wrap;html=1;" vertex="1" parent="1">
          <mxGeometry x="620" y="560" width="230" height="85" as="geometry" />
        </mxCell>
        <mxCell id="asQEeE-Eh1QKs91jRv2q-9" value="Retirer_Evénement" style="ellipse;whiteSpace=wrap;html=1;" vertex="1" parent="1">
          <mxGeometry x="770" y="430" width="220" height="70" as="geometry" />
        </mxCell>
        <mxCell id="asQEeE-Eh1QKs91jRv2q-10" value="Modifier_Evénement" style="ellipse;whiteSpace=wrap;html=1;" vertex="1" parent="1">
          <mxGeometry x="770" y="310" width="220" height="70" as="geometry" />
        </mxCell>
        <mxCell id="asQEeE-Eh1QKs91jRv2q-11" value="Voir_ListeEvénement" style="ellipse;whiteSpace=wrap;html=1;" vertex="1" parent="1">
          <mxGeometry x="760" y="200" width="200" height="70" as="geometry" />
        </mxCell>
        <mxCell id="asQEeE-Eh1QKs91jRv2q-13" value="" style="endArrow=none;html=1;rounded=0;" edge="1" parent="1" target="HDKCLgBYvoo_a0cAm_rK-2">
          <mxGeometry width="50" height="50" relative="1" as="geometry">
            <mxPoint x="-15" y="300" as="sourcePoint" />
            <mxPoint x="40" y="250" as="targetPoint" />
          </mxGeometry>
        </mxCell>
        <mxCell id="asQEeE-Eh1QKs91jRv2q-23" value="&lt;font style=&quot;font-size: 18px;&quot;&gt;&lt;b&gt;Gestion Evénements&lt;/b&gt;&lt;/font&gt;" style="text;html=1;strokeColor=none;fillColor=none;align=center;verticalAlign=middle;whiteSpace=wrap;rounded=0;" vertex="1" parent="1">
          <mxGeometry x="570" y="-110" width="120" height="30" as="geometry" />
        </mxCell>
        <mxCell id="asQEeE-Eh1QKs91jRv2q-25" value="" style="endArrow=none;html=1;rounded=0;entryX=0;entryY=0.5;entryDx=0;entryDy=0;" edge="1" parent="1" target="HDKCLgBYvoo_a0cAm_rK-3">
          <mxGeometry width="50" height="50" relative="1" as="geometry">
            <mxPoint x="-15" y="300" as="sourcePoint" />
            <mxPoint x="180" y="250" as="targetPoint" />
          </mxGeometry>
        </mxCell>
        <mxCell id="asQEeE-Eh1QKs91jRv2q-40" value="" style="endArrow=block;dashed=1;endFill=0;endSize=12;html=1;rounded=0;exitX=0.439;exitY=0.014;exitDx=0;exitDy=0;exitPerimeter=0;" edge="1" parent="1" source="asQEeE-Eh1QKs91jRv2q-7" target="HDKCLgBYvoo_a0cAm_rK-3">
          <mxGeometry width="160" relative="1" as="geometry">
            <mxPoint x="468.9499999999998" y="602" as="sourcePoint" />
            <mxPoint x="650" y="500" as="targetPoint" />
          </mxGeometry>
        </mxCell>
        <mxCell id="asQEeE-Eh1QKs91jRv2q-41" value="" style="endArrow=block;dashed=1;endFill=0;endSize=12;html=1;rounded=0;entryX=0.56;entryY=1.1;entryDx=0;entryDy=0;entryPerimeter=0;" edge="1" parent="1" source="asQEeE-Eh1QKs91jRv2q-6" target="HDKCLgBYvoo_a0cAm_rK-3">
          <mxGeometry width="160" relative="1" as="geometry">
            <mxPoint x="455.10407640085623" y="648.2842712474617" as="sourcePoint" />
            <mxPoint x="570" y="590" as="targetPoint" />
          </mxGeometry>
        </mxCell>
        <mxCell id="asQEeE-Eh1QKs91jRv2q-42" value="" style="endArrow=none;html=1;rounded=0;entryX=0;entryY=0;entryDx=0;entryDy=0;" edge="1" parent="1" target="HDKCLgBYvoo_a0cAm_rK-6">
          <mxGeometry width="50" height="50" relative="1" as="geometry">
            <mxPoint x="-15" y="300" as="sourcePoint" />
            <mxPoint x="250" y="650" as="targetPoint" />
          </mxGeometry>
        </mxCell>
        <mxCell id="asQEeE-Eh1QKs91jRv2q-43" value="include" style="text;html=1;strokeColor=none;fillColor=none;align=center;verticalAlign=middle;whiteSpace=wrap;rounded=0;" vertex="1" parent="1">
          <mxGeometry x="570" y="180" width="60" height="30" as="geometry" />
        </mxCell>
        <mxCell id="asQEeE-Eh1QKs91jRv2q-44" value="" style="endArrow=block;dashed=1;endFill=0;endSize=12;html=1;rounded=0;exitX=0;exitY=1;exitDx=0;exitDy=0;entryX=0.925;entryY=0.271;entryDx=0;entryDy=0;entryPerimeter=0;" edge="1" parent="1" source="asQEeE-Eh1QKs91jRv2q-5" target="HDKCLgBYvoo_a0cAm_rK-3">
          <mxGeometry width="160" relative="1" as="geometry">
            <mxPoint x="640" y="170" as="sourcePoint" />
            <mxPoint x="800" y="170" as="targetPoint" />
          </mxGeometry>
        </mxCell>
        <mxCell id="asQEeE-Eh1QKs91jRv2q-45" value="" style="endArrow=block;dashed=1;endFill=0;endSize=12;html=1;rounded=0;exitX=0;exitY=0.5;exitDx=0;exitDy=0;entryX=0.925;entryY=0.271;entryDx=0;entryDy=0;entryPerimeter=0;" edge="1" parent="1" source="asQEeE-Eh1QKs91jRv2q-11">
          <mxGeometry width="160" relative="1" as="geometry">
            <mxPoint x="723" y="158" as="sourcePoint" />
            <mxPoint x="525" y="269" as="targetPoint" />
          </mxGeometry>
        </mxCell>
        <mxCell id="asQEeE-Eh1QKs91jRv2q-46" value="include" style="text;html=1;strokeColor=none;fillColor=none;align=center;verticalAlign=middle;whiteSpace=wrap;rounded=0;" vertex="1" parent="1">
          <mxGeometry x="640" y="210" width="60" height="30" as="geometry" />
        </mxCell>
        <mxCell id="asQEeE-Eh1QKs91jRv2q-47" value="" style="endArrow=block;dashed=1;endFill=0;endSize=12;html=1;rounded=0;exitX=0;exitY=0;exitDx=0;exitDy=0;" edge="1" parent="1" source="asQEeE-Eh1QKs91jRv2q-10">
          <mxGeometry width="160" relative="1" as="geometry">
            <mxPoint x="770" y="245" as="sourcePoint" />
            <mxPoint x="530" y="279" as="targetPoint" />
          </mxGeometry>
        </mxCell>
        <mxCell id="asQEeE-Eh1QKs91jRv2q-48" value="include" style="text;html=1;strokeColor=none;fillColor=none;align=center;verticalAlign=middle;whiteSpace=wrap;rounded=0;" vertex="1" parent="1">
          <mxGeometry x="660" y="270" width="60" height="30" as="geometry" />
        </mxCell>
        <mxCell id="asQEeE-Eh1QKs91jRv2q-49" value="" style="endArrow=block;dashed=1;endFill=0;endSize=12;html=1;rounded=0;" edge="1" parent="1" source="asQEeE-Eh1QKs91jRv2q-8">
          <mxGeometry width="160" relative="1" as="geometry">
            <mxPoint x="532.7999999999997" y="410" as="sourcePoint" />
            <mxPoint x="480" y="300" as="targetPoint" />
          </mxGeometry>
        </mxCell>
        <mxCell id="asQEeE-Eh1QKs91jRv2q-50" value="" style="endArrow=block;dashed=1;endFill=0;endSize=12;html=1;rounded=0;exitX=0.391;exitY=0;exitDx=0;exitDy=0;exitPerimeter=0;entryX=1;entryY=1;entryDx=0;entryDy=0;" edge="1" parent="1" source="asQEeE-Eh1QKs91jRv2q-9" target="HDKCLgBYvoo_a0cAm_rK-3">
          <mxGeometry width="160" relative="1" as="geometry">
            <mxPoint x="822" y="340" as="sourcePoint" />
            <mxPoint x="510" y="300" as="targetPoint" />
          </mxGeometry>
        </mxCell>
        <mxCell id="asQEeE-Eh1QKs91jRv2q-51" value="include" style="text;html=1;strokeColor=none;fillColor=none;align=center;verticalAlign=middle;whiteSpace=wrap;rounded=0;" vertex="1" parent="1">
          <mxGeometry x="660" y="340" width="60" height="30" as="geometry" />
        </mxCell>
        <mxCell id="asQEeE-Eh1QKs91jRv2q-55" value="include" style="text;html=1;strokeColor=none;fillColor=none;align=center;verticalAlign=middle;whiteSpace=wrap;rounded=0;" vertex="1" parent="1">
          <mxGeometry x="530" y="350" width="60" height="30" as="geometry" />
        </mxCell>
        <mxCell id="asQEeE-Eh1QKs91jRv2q-56" value="include" style="text;html=1;strokeColor=none;fillColor=none;align=center;verticalAlign=middle;whiteSpace=wrap;rounded=0;" vertex="1" parent="1">
          <mxGeometry x="510" y="520" width="60" height="30" as="geometry" />
        </mxCell>
        <mxCell id="asQEeE-Eh1QKs91jRv2q-57" value="include" style="text;html=1;strokeColor=none;fillColor=none;align=center;verticalAlign=middle;whiteSpace=wrap;rounded=0;" vertex="1" parent="1">
          <mxGeometry x="300" y="410" width="60" height="30" as="geometry" />
        </mxCell>
      </root>
    </mxGraphModel>
  </diagram>
</mxfile>
